<?xml version="1.0" encoding="utf-8"?>
<!-- Generator: Adobe Illustrator 24.0.1, SVG Export Plug-In . SVG Version: 6.00 Build 0)  -->
<svg version="1.1" id="katman_1" xmlns="http://www.w3.org/2000/svg" xmlns:xlink="http://www.w3.org/1999/xlink" x="0px" y="0px"
	 viewBox="0 0 14400 14400" style="enable-background:new 0 0 14400 14400;" xml:space="preserve">
<style type="text/css">
	.st0{fill:#006034;stroke:#000000;stroke-miterlimit:10;}
</style>
<polygon class="st0" points="6873.57,6644.56 6892.09,6728.51 6901.97,6805.06 6882.83,6884.07 6908.14,6963.08 6887.77,7027.28 
	6908.14,7087.77 6908.14,7121.1 6908.14,7177.9 6898.27,7209.99 6890.86,7321.1 6908.14,7366.78 6908.14,7432.22 6890.86,7464.31 
	6901.97,7518.64 6890.86,7575.43 6899.5,7617.4 6908.14,7656.91 6890.86,7706.29 6890.86,7743.33 6908.14,7791.48 6901.97,7866.78 
	6914.31,7974.19 6893.94,8026.04 6914.31,8177.9 6901.97,8248.27 6921.72,8342.09 6930.36,8418.64 6901.97,8468.02 6930.36,8587.77 
	6915.55,8808.76 6930.36,8889.01 6918.02,9016.17 6930.36,9133.45 6922.96,9268.02 6657.52,9268.02 6657.52,6659.5 "/>
</svg>
